<?xml version="1.0" encoding="iso-8859-1"?><svg width="977" height="977" viewBox="0 0 977 977" xmlns="http://www.w3.org/2000/svg" xmlns:xlink="http://www.w3.org/1999/xlink"><svg viewBox="-1 -1 488.39 488.39" width="488.39" height="488.39" id="fb" xmlns="http://www.w3.org/2000/svg"><path d="M243.196 0C108.891 0 0 108.891 0 243.196s108.891 243.196 243.196 243.196 243.196-108.891 243.196-243.196C486.392 108.861 377.501 0 243.196 0zm62.866 243.165l-39.854.03-.03 145.917h-54.689V243.196H175.01v-50.281l36.479-.03-.061-29.609c0-41.039 11.126-65.997 59.431-65.997h40.249v50.311h-25.171c-18.817 0-19.729 7.022-19.729 20.124l-.061 25.171h45.234l-5.319 50.28z" fill="#010002"/></svg><svg viewBox="-1 -1 488.39 488.39" width="488.39" height="488.39" id="g" x="488.39" xmlns="http://www.w3.org/2000/svg"><g fill="#010002"><path d="M243.196 0C108.891 0 0 108.891 0 243.196s108.891 243.196 243.196 243.196 243.196-108.891 243.196-243.196C486.392 108.861 377.501 0 243.196 0zm-67.852 406.836c-53.837 0-99.254-21.918-99.254-56.938 0-35.537 41.434-69.858 95.272-69.828l16.811-.152c-7.357-7.144-13.193-15.929-13.193-26.782 0-6.445 2.067-12.616 4.925-18.118l-8.968.304c-44.231 0-73.84-31.463-73.84-70.466 0-38.151 40.887-71.074 84.359-71.074h96.974l-21.766 15.686H225.93c20.398 7.843 31.251 31.615 31.251 55.996 0 20.459-11.339 38.091-27.36 50.615-15.656 12.251-18.604 17.358-18.604 27.755 0 8.877 16.781 23.955 25.536 30.187 25.627 18.118 33.865 34.929 33.865 62.988-.002 35.02-33.897 69.827-95.274 69.827zm189.45-193.462v60.708h-30.369v-60.708h-60.829v-30.977h60.829v-60.799h30.369v60.799h60.799v30.977h-60.799z"/><path d="M205.774 293.021c-7.357-2.371-15.473-3.8-24.137-3.891-37.209-.395-70.527 22.678-70.527 50.433 0 28.332 26.873 51.861 64.082 51.861 52.317 0 70.527-22.131 70.527-50.402 0-3.405-.426-6.749-1.186-10.001-4.073-16.052-18.574-23.986-38.759-38zM222.342 167.349c-4.317-32.771-28.059-59.097-53.017-59.857-24.958-.73-41.708 24.35-37.391 57.181 4.317 32.801 28.059 60.009 53.047 60.738 24.927.761 41.708-25.23 37.361-58.062z"/></g></svg><svg viewBox="-1 -1 488.39 488.39" width="488.39" height="488.39" id="tw" y="488.39" xmlns="http://www.w3.org/2000/svg"><path d="M243.196 0C108.891 0 0 108.891 0 243.196s108.891 243.196 243.196 243.196 243.196-108.891 243.196-243.196C486.392 108.861 377.501 0 243.196 0zm120.99 188.598l.182 7.752c0 79.16-60.221 170.359-170.359 170.359-33.804 0-65.268-9.91-91.776-26.904 4.682.547 9.454.851 14.288.851 28.059 0 53.868-9.576 74.357-25.627-26.204-.486-48.305-17.814-55.935-41.586 3.678.699 7.387 1.034 11.278 1.034 5.472 0 10.761-.699 15.777-2.067-27.39-5.533-48.031-29.7-48.031-58.701v-.76c8.086 4.499 17.297 7.174 27.116 7.509-16.051-10.731-26.63-29.062-26.63-49.825 0-10.974 2.949-21.249 8.086-30.095 29.518 36.236 73.658 60.069 123.422 62.562-1.034-4.378-1.55-8.968-1.55-13.649 0-33.044 26.812-59.857 59.887-59.857 17.206 0 32.771 7.265 43.714 18.908a121.25 121.25 0 0 0 38.03-14.531c-4.469 13.984-13.953 25.718-26.326 33.135a120.032 120.032 0 0 0 34.382-9.424c-8.025 11.977-18.209 22.526-29.912 30.916z" fill="#010002"/></svg></svg>